<?xml version="1.0" encoding="UTF-8"?>
<svg version="1.1" xmlns="http://www.w3.org/2000/svg" width="192" height="192">
<path d="M0 0 C63.36 0 126.72 0 192 0 C192 63.36 192 126.72 192 192 C128.64 192 65.28 192 0 192 C0 128.64 0 65.28 0 0 Z " fill="#004F4C" transform="translate(0,0)"/>
<path d="M0 0 C1.07362793 0.00809692 1.07362793 0.00809692 2.16894531 0.01635742 C8.78876959 0.2071109 13.07553229 1.64207321 18.08203125 6.05078125 C20.91287986 7.86150424 22.84843015 7.83776408 26.1875 7.8125 C27.20714844 7.82023437 28.22679687 7.82796875 29.27734375 7.8359375 C32.61052747 7.389177 34.46855644 6.26599681 37.25 4.4375 C37.91 4.4375 38.57 4.4375 39.25 4.4375 C38.77140759 6.04183809 38.29210442 7.64596416 37.8125 9.25 C37.54566406 10.14332031 37.27882813 11.03664063 37.00390625 11.95703125 C36.44612127 13.79223055 35.85655425 15.61783726 35.25 17.4375 C34.57912821 28.31336387 34.65275041 36.45828742 41.9375 44.9375 C43.03070243 46.11444672 44.13113806 47.28491894 45.25 48.4375 C40.62707796 57.80571554 35.89138632 67.11116282 31.0625 76.375 C30.56395508 77.332854 30.06541016 78.29070801 29.55175781 79.27758789 C28.58778426 81.12210805 27.61713436 82.96315768 26.63916016 84.80029297 C25.71677096 86.55137348 24.82020388 88.31631273 23.95068359 90.09423828 C23.5377002 90.91005371 23.1247168 91.72586914 22.69921875 92.56640625 C22.16880981 93.65223999 22.16880981 93.65223999 21.62768555 94.76000977 C20.25 96.4375 20.25 96.4375 17.70947266 97.20556641 C15.14834719 97.44708608 13.7138446 97.08956544 11.25 96.4375 C-2.34157774 95.55696786 -2.34157774 95.55696786 -14.75 100.4375 C-15.54019531 100.91960937 -16.33039063 101.40171875 -17.14453125 101.8984375 C-20.46038074 104.00901052 -23.2822016 105.90090772 -25.875 108.875 C-27.75 110.4375 -27.75 110.4375 -30.8125 110.625 C-36.96124288 109.29410327 -43.42019386 105.43637868 -47.2734375 100.4765625 C-49.02564293 97.14341984 -49.91180549 93.85503807 -50.6875 90.1875 C-51.46988051 86.4516636 -51.46988051 86.4516636 -53.6875 84.125 C-60.13439302 80.57263038 -67.48641213 79.24456532 -74.75 78.4375 C-69.14208922 64.86697558 -47.53489333 53.80093957 -34.67431641 48.20019531 C-27.9626006 45.5400329 -19.99592878 42.4375 -12.75 42.4375 C-12.89074951 41.8388916 -13.03149902 41.2402832 -13.17651367 40.62353516 C-14.56814227 34.28791445 -15.08617315 28.28947508 -15.0625 21.8125 C-15.07861328 20.92304687 -15.09472656 20.03359375 -15.11132812 19.1171875 C-15.1161535 12.5546804 -14.5128835 6.63762883 -10.046875 1.46484375 C-6.73352209 -0.01714913 -3.56415675 -0.05062255 0 0 Z " fill="#E0EFF4" transform="translate(108.75,40.5625)"/>
</svg>
